<?xml version="1.0" encoding="UTF-8" standalone="no"?><!DOCTYPE svg PUBLIC "-//W3C//DTD SVG 1.1//EN" "http://www.w3.org/Graphics/SVG/1.1/DTD/svg11.dtd"><svg width="100%" height="100%" viewBox="0 0 2250 2250" version="1.1" xmlns="http://www.w3.org/2000/svg" xmlns:xlink="http://www.w3.org/1999/xlink" xml:space="preserve" xmlns:serif="http://www.serif.com/" style="fill-rule:evenodd;clip-rule:evenodd;stroke-linejoin:round;stroke-miterlimit:2;"><g><path d="M1135.67,455.759c20.337,-2.611 41.081,-3.958 62.147,-3.958c7.953,-0 15.86,0.192 23.716,0.571l-0.537,-0.242l2.864,-2.864l133.768,-175.241l125.092,45.049l-8.658,219.833c26.283,18.557 50.514,39.69 72.299,63.016l213.749,-23.358l53.625,121.663l-151.78,133.514c4.139,24.347 6.292,49.34 6.292,74.818c0,6.259 -0.13,12.488 -0.387,18.686l168.569,139.68l-50.012,123.192l-205.649,-16.349c-13.487,18.318 -28.333,35.63 -44.394,51.796l-49.557,-79.922c53.02,-64.538 84.864,-147.121 84.864,-237.083c-0,-206.341 -167.523,-373.863 -373.864,-373.863c-196.079,-0 -357.105,151.274 -372.636,343.381l-136.052,-83.299l-23.522,31.195l-104.927,-82.792l47.052,-124.353l216.674,12.018c20.002,-25.306 42.669,-48.524 67.592,-69.257l-0.74,0.326l-23.939,-219.158l121.665,-53.62l145.604,165.539l1.082,1.082Z" style="fill:url(#_Linear1);"/><g transform="matrix(170.833,0,0,170.833,2201.33,1774.28)"></g><text x="119.803px" y="1774.28px" style="font-family:'AdventureSubtitlesNormal', 'Adventure Subtitles', fantasy;font-weight:500;font-size:170.833px;">E<tspan x="230.773px 330.494px 430.465px 529.603px 629.323px 729.211px 828.932px 922.819px 957.707px 1057.43px 1106.73px 1213.04px 1262.34px 1379.48px 1477.87px 1576.25px 1675.39px 1773.78px 1872.16px 1971.64px 2065.52px 2100.41px " y="1774.28px 1774.28px 1774.28px 1774.28px 1774.28px 1774.28px 1774.28px 1774.28px 1774.28px 1774.28px 1774.28px 1774.28px 1774.28px 1774.28px 1774.28px 1774.28px 1774.28px 1774.28px 1774.28px 1774.28px 1774.28px 1774.28px ">ngenharia &amp; Assessoria</tspan></text><g><path d="M748.528,1488.31l161.152,0l0,62.417l-167.894,-0c-15.224,-0 -28.309,-5.473 -39.255,-16.42c-10.947,-10.946 -16.42,-24.031 -16.42,-39.255l0,-253.364l62.417,0l-0,246.622Z" style="fill-rule:nonzero;"/><path d="M1120.35,1488.31l161.152,0l0,62.417l-167.894,-0c-15.224,-0 -28.309,-5.473 -39.255,-16.42c-10.947,-10.946 -16.42,-24.031 -16.42,-39.255l0,-253.364l62.417,0l-0,246.622Z" style="fill-rule:nonzero;"/><path d="M1643.98,1391.75l-0,-96.778l-160.718,-0l0,96.778l160.718,0Zm-1.74,-150.061c15.658,0 28.852,5.365 39.581,16.094c10.729,10.729 16.094,23.923 16.094,39.581l-0,253.364l-53.935,-0l-0,-105.478l-160.718,0l0,105.478l-53.5,-0l0,-253.364c0,-15.658 5.365,-28.852 16.094,-39.581c10.729,-10.729 23.922,-16.094 39.581,-16.094l156.803,0Z" style="fill:url(#_Linear2);fill-rule:nonzero;"/></g><path d="M188.444,766.422c31.067,27.292 83.003,78.897 81.966,137.935c-0.601,34.23 -11.254,163.299 37.715,251.69c35.775,64.576 82.941,86.992 107.726,96.606c25.114,9.74 46.79,11.667 50.963,12.038c3.234,0.288 3.228,0.209 4.39,0.216l172.948,1.062c3.068,0.013 6.135,-0.11 9.202,-0.166c2.367,-0.043 2.479,0.009 4.182,1.651c0.025,0.025 1.808,4.123 1.801,4.14c-1.659,4.223 -1.256,5.298 -5.75,5.961c-3.041,0.45 -6.15,0.044 -9.223,0.167l-172.796,7.305c-1.684,0.07 -7.8,0.327 -21.026,-1.325c-44,-5.499 -74.511,-24.072 -90.629,-35.331c-43.908,-30.671 -67.062,-72.529 -75.408,-88.727c-50.505,-98.019 -35.918,-240.716 -36.535,-260.088c-2.076,-65.078 -86.083,-125.927 -95.37,-135.687c-0.343,-0.36 -3.121,-3.087 -3.559,-7c-0.093,-0.83 -0.665,-5.933 4.012,-9.64c0.446,-0.354 2.913,-2.31 6.73,-2.329c5.194,-0.026 214.626,1.354 233.289,1.477c26.436,0.174 26.431,0.251 36.574,0.152c90.321,-0.884 182.404,18.581 257.742,70.1c11.611,7.94 46.517,32.398 77.533,72.731c72.693,94.529 47.657,190.429 31.01,237.657c-16.645,47.222 -42.829,88.617 -49.558,99.307c-1.265,2.01 -1.369,2.075 -3.679,2.609c-0.034,0.008 -4.432,-0.725 -4.443,-0.74c-0.869,-1.216 -2.257,-2.201 -2.594,-3.657c-0.335,-1.453 0.315,-2.981 0.731,-4.413c0.326,-1.123 28.721,-43.604 46.904,-95.809c28.283,-81.208 30.401,-177.798 -69.335,-266.164c-106.898,-94.711 -246.906,-93.017 -290.515,-91.911c-1.224,0.031 -180.761,0.164 -234.998,0.183Z" style="fill:url(#_Linear3);"/><g><path d="M399.444,1001.98c2.778,-10.842 7.391,-21.029 13.517,-30.263l-22.887,-23.79l34.705,-33.388l23.157,24.071c11.015,-6.579 23.351,-11.419 36.554,-14.101l0,-32.602l48.158,-0l-0,32.602c13.269,2.695 25.661,7.57 36.718,14.199l23.252,-24.169l34.704,33.388l-23.04,23.949c6.074,9.192 10.65,19.324 13.412,30.104l35.012,0l-0,48.158l-35.012,0c-2.835,11.063 -7.58,21.444 -13.893,30.826l23.521,24.449l-34.704,33.388l-24,-24.947c-10.867,6.403 -23,11.12 -35.97,13.755l-0,30.072l-48.158,-0l0,-30.072c-12.905,-2.621 -24.981,-7.304 -35.805,-13.657l-23.906,24.849l-34.705,-33.388l23.369,-24.291c-6.366,-9.424 -11.148,-19.859 -13.999,-30.984l-34.753,0l0,-48.158l34.753,0Z"/></g></g><defs><linearGradient id="_Linear1" x1="0" y1="0" x2="1" y2="0" gradientUnits="userSpaceOnUse" gradientTransform="matrix(1275.75,0,0,951.541,560.68,749.795)"><stop offset="0" style="stop-color:#737373;stop-opacity:1"/><stop offset="1" style="stop-color:#fff;stop-opacity:1"/></linearGradient><linearGradient id="_Linear2" x1="0" y1="0" x2="1" y2="0" gradientUnits="userSpaceOnUse" gradientTransform="matrix(268.152,0,0,309.039,1429.76,1396.21)"><stop offset="0" style="stop-color:#35561b;stop-opacity:1"/><stop offset="0.47" style="stop-color:#6da93c;stop-opacity:1"/><stop offset="1" style="stop-color:#7dc146;stop-opacity:1"/></linearGradient><linearGradient id="_Linear3" x1="0" y1="0" x2="1" y2="0" gradientUnits="userSpaceOnUse" gradientTransform="matrix(647.299,0,0,519.355,159.752,1015.33)"><stop offset="0" style="stop-color:#35561b;stop-opacity:1"/><stop offset="0.19" style="stop-color:#53822d;stop-opacity:1"/><stop offset="0.41" style="stop-color:#70ad3e;stop-opacity:1"/><stop offset="1" style="stop-color:#7dc146;stop-opacity:1"/></linearGradient></defs></svg>